# xmcd
#
# Track frame offsets:
#	150
#	11535
#	24465
#	41615
#	55097
#	66452
#	79575
#	93972
#	106522
#	120420
#	133990
#	147702
#	158307
#
# Disc length: 2250 seconds
# Revision: 4
# Processed by: cddbd v1.5.2PL0 Copyright (c) Steve Scherf et al.
# Submitted via: dBpowerAMP V12.0
#
DISCID=a008c80d
DTITLE=Alexis Korner's Blues Incorporated - R&B From The Marquee
DYEAR=1996
DGENRE=Blues
TTITLE0=Gotta Move
TTITLE1=Rain Is Such a Lonesome Sound
TTITLE2=I Got My Brand on You
TTITLE3=Spooky But Nice
TTITLE4=Keep Your Hands Off
TTITLE5=I Wanna Put a Tiger in Your Tank
TTITLE6=I Got My Mojo Working
TTITLE7=Finkle's Cafe
TTITLE8=Hoochie Coochie
TTITLE9=Down Town
TTITLE10=How Long, How Long, Blues
TTITLE11=I Thought I Heard That Train Whistle Blow
TTITLE12=I'm Built for Comfort
EXTD=
EXTT0=
EXTT1=
EXTT2=
EXTT3=
EXTT4=
EXTT5=
EXTT6=
EXTT7=
EXTT8=
EXTT9=
EXTT10=
EXTT11=
EXTT12=
PLAYORDER=
